<mxfile host="app.diagrams.net" agent="Mozilla/5.0 (Macintosh; Intel Mac OS X 10_15_7) AppleWebKit/537.36 (KHTML, like Gecko) Chrome/136.0.0.0 Safari/537.36 Edg/136.0.0.0" version="27.1.4">
  <diagram name="Page-1" id="5vX20tcKVtbhAXsmYMWp">
    <mxGraphModel dx="3236" dy="2388" grid="1" gridSize="10" guides="1" tooltips="0" connect="1" arrows="1" fold="1" page="0" pageScale="1" pageWidth="827" pageHeight="1169" background="none" math="0" shadow="0">
      <root>
        <mxCell id="0" />
        <mxCell id="1" parent="0" />
        <mxCell id="hzwgoOfj2_0xF4Kj0dXY-171" value="" style="group" parent="1" vertex="1" connectable="0">
          <mxGeometry x="393.24" y="190" width="122.27" height="110" as="geometry" />
        </mxCell>
        <mxCell id="hzwgoOfj2_0xF4Kj0dXY-62" value="" style="rounded=0;whiteSpace=wrap;html=1;fillColor=none;strokeColor=none;container=0;" parent="hzwgoOfj2_0xF4Kj0dXY-171" vertex="1">
          <mxGeometry width="122.27" height="82.5" as="geometry" />
        </mxCell>
        <mxCell id="hzwgoOfj2_0xF4Kj0dXY-63" value="" style="rounded=1;whiteSpace=wrap;html=1;strokeColor=#e6e6e6;strokeWidth=1;shadow=0;glass=0;perimeterSpacing=0;fillStyle=auto;gradientColor=#f7f7f7;container=0;fillColor=#ffffff;" parent="hzwgoOfj2_0xF4Kj0dXY-171" vertex="1">
          <mxGeometry width="122.27" height="110" as="geometry" />
        </mxCell>
        <mxCell id="hzwgoOfj2_0xF4Kj0dXY-64" value="&lt;p style=&quot;line-height: 100%; font-size: 10px;&quot;&gt;&lt;b&gt;&lt;font face=&quot;Tahoma&quot;&gt;CSV Generator&lt;/font&gt;&lt;/b&gt;&lt;/p&gt;" style="html=1;rounded=1;strokeColor=#999999;arcSize=50;fillColor=#808080;fontColor=#FFFFFF;glass=0;textOpacity=95;container=0;spacing=2;fontSize=10;" parent="hzwgoOfj2_0xF4Kj0dXY-171" vertex="1">
          <mxGeometry y="82.5" width="122.27" height="27.5" as="geometry" />
        </mxCell>
        <mxCell id="hzwgoOfj2_0xF4Kj0dXY-71" value="&lt;font style=&quot;font-size: 7px;&quot; color=&quot;#666666&quot; face=&quot;Courier New&quot;&gt;i = 0;&lt;br&gt;i++;&lt;/font&gt;" style="sketch=0;outlineConnect=0;gradientColor=none;html=1;whiteSpace=wrap;fontSize=12;fontStyle=0;shape=mxgraph.aws4.group;grIcon=mxgraph.aws4.group_aws_step_functions_workflow;strokeColor=#333333;fillColor=none;verticalAlign=top;align=left;spacingLeft=30;fontColor=#E8E8E8;dashed=0;container=0;" parent="hzwgoOfj2_0xF4Kj0dXY-171" vertex="1">
          <mxGeometry x="15.28375" y="13.75" width="91.7025" height="55" as="geometry" />
        </mxCell>
        <UserObject label="" link="https://github.com/FarukValjevac/Eversports" linkTarget="_blank" id="hzwgoOfj2_0xF4Kj0dXY-227">
          <mxCell style="dashed=0;outlineConnect=0;html=1;align=center;labelPosition=center;verticalLabelPosition=bottom;verticalAlign=top;shape=mxgraph.weblogos.github;container=0;movable=1;resizable=1;rotatable=1;deletable=1;editable=1;locked=0;connectable=1;" parent="1" vertex="1">
            <mxGeometry x="-130" y="-287.5" width="100" height="95" as="geometry" />
          </mxCell>
        </UserObject>
        <mxCell id="hzwgoOfj2_0xF4Kj0dXY-209" value="" style="rounded=0;whiteSpace=wrap;html=1;gradientColor=#E3E3E3;fillColor=#fefefe;strokeColor=none;movable=0;resizable=0;rotatable=0;deletable=0;editable=0;locked=1;connectable=0;" parent="1" vertex="1">
          <mxGeometry y="-430" width="1" height="50" as="geometry" />
        </mxCell>
        <mxCell id="hzwgoOfj2_0xF4Kj0dXY-210" value="" style="rounded=0;whiteSpace=wrap;html=1;gradientColor=#E3E3E3;fillColor=#f7f7f7;strokeColor=none;rotation=-180;movable=0;resizable=0;rotatable=0;deletable=0;editable=0;locked=1;connectable=0;" parent="1" vertex="1">
          <mxGeometry y="-380" width="1" height="50" as="geometry" />
        </mxCell>
        <mxCell id="hzwgoOfj2_0xF4Kj0dXY-211" value="" style="rounded=0;whiteSpace=wrap;html=1;fillColor=none;strokeColor=none;movable=0;resizable=0;rotatable=0;deletable=0;editable=0;locked=1;connectable=0;" parent="1" vertex="1">
          <mxGeometry y="-440" width="10" height="120" as="geometry" />
        </mxCell>
        <mxCell id="hzwgoOfj2_0xF4Kj0dXY-222" value="" style="rounded=0;whiteSpace=wrap;html=1;gradientColor=#E3E3E3;fillColor=#fefefe;strokeColor=none;movable=0;resizable=0;rotatable=0;deletable=0;editable=0;locked=1;connectable=0;" parent="1" vertex="1">
          <mxGeometry x="410" y="-430" width="1" height="50" as="geometry" />
        </mxCell>
        <mxCell id="hzwgoOfj2_0xF4Kj0dXY-223" value="" style="rounded=0;whiteSpace=wrap;html=1;gradientColor=#E3E3E3;fillColor=#f7f7f7;strokeColor=none;rotation=-180;movable=0;resizable=0;rotatable=0;deletable=0;editable=0;locked=1;connectable=0;" parent="1" vertex="1">
          <mxGeometry x="410" y="-380" width="1" height="50" as="geometry" />
        </mxCell>
        <mxCell id="hzwgoOfj2_0xF4Kj0dXY-224" value="" style="rounded=0;whiteSpace=wrap;html=1;fillColor=none;strokeColor=none;movable=0;resizable=0;rotatable=0;deletable=0;editable=0;locked=1;connectable=0;" parent="1" vertex="1">
          <mxGeometry x="410" y="-440" width="10" height="120" as="geometry" />
        </mxCell>
        <mxCell id="hzwgoOfj2_0xF4Kj0dXY-232" value="" style="rounded=0;whiteSpace=wrap;html=1;gradientColor=#E3E3E3;fillColor=#fefefe;strokeColor=none;movable=0;resizable=0;rotatable=0;deletable=0;editable=0;locked=1;connectable=0;" parent="1" vertex="1">
          <mxGeometry x="750" y="-430" width="1" height="50" as="geometry" />
        </mxCell>
        <mxCell id="hzwgoOfj2_0xF4Kj0dXY-233" value="" style="rounded=0;whiteSpace=wrap;html=1;gradientColor=#E3E3E3;fillColor=#f7f7f7;strokeColor=none;rotation=-180;movable=0;resizable=0;rotatable=0;deletable=0;editable=0;locked=1;connectable=0;" parent="1" vertex="1">
          <mxGeometry x="750" y="-380" width="1" height="50" as="geometry" />
        </mxCell>
        <mxCell id="hzwgoOfj2_0xF4Kj0dXY-234" value="" style="rounded=0;whiteSpace=wrap;html=1;fillColor=none;strokeColor=none;movable=0;resizable=0;rotatable=0;deletable=0;editable=0;locked=1;connectable=0;" parent="1" vertex="1">
          <mxGeometry x="740" y="-440" width="10" height="120" as="geometry" />
        </mxCell>
        <mxCell id="hzwgoOfj2_0xF4Kj0dXY-278" value="" style="group" parent="1" vertex="1" connectable="0">
          <mxGeometry x="410" y="-287.5" width="92" height="107.5" as="geometry" />
        </mxCell>
        <mxCell id="hzwgoOfj2_0xF4Kj0dXY-279" value="" style="rounded=0;whiteSpace=wrap;html=1;fillColor=none;strokeColor=none;container=0;" parent="hzwgoOfj2_0xF4Kj0dXY-278" vertex="1">
          <mxGeometry width="92" height="80.625" as="geometry" />
        </mxCell>
        <mxCell id="hzwgoOfj2_0xF4Kj0dXY-280" value="" style="rounded=1;whiteSpace=wrap;html=1;strokeColor=#e6e6e6;strokeWidth=1;shadow=0;glass=0;perimeterSpacing=0;fillStyle=auto;gradientColor=#f7f7f7;container=0;fillColor=#ffffff;" parent="hzwgoOfj2_0xF4Kj0dXY-278" vertex="1">
          <mxGeometry width="92" height="107.5" as="geometry" />
        </mxCell>
        <mxCell id="hzwgoOfj2_0xF4Kj0dXY-281" value="AWS SQS" style="html=1;rounded=1;strokeColor=#ff9442;arcSize=50;fillColor=#FF7814;fontColor=#FFFFFF;glass=0;textOpacity=95;container=0;spacing=2;fontSize=10;" parent="hzwgoOfj2_0xF4Kj0dXY-278" vertex="1">
          <mxGeometry y="80.625" width="92" height="26.875" as="geometry" />
        </mxCell>
        <mxCell id="hzwgoOfj2_0xF4Kj0dXY-277" value="" style="outlineConnect=0;dashed=0;verticalLabelPosition=bottom;verticalAlign=top;align=center;html=1;shape=mxgraph.aws3.sns;fillColor=#D9A741;gradientColor=none;" parent="hzwgoOfj2_0xF4Kj0dXY-278" vertex="1">
          <mxGeometry x="23" y="13.4375" width="46" height="53.75" as="geometry" />
        </mxCell>
        <mxCell id="pumXQRFQ_T5vQMvHk7e2-1" value="" style="group" parent="1" vertex="1" connectable="0">
          <mxGeometry x="65.01" y="-300" width="120.01" height="120" as="geometry" />
        </mxCell>
        <mxCell id="pumXQRFQ_T5vQMvHk7e2-2" value="" style="rounded=0;whiteSpace=wrap;html=1;fillColor=none;strokeColor=none;container=0;" parent="pumXQRFQ_T5vQMvHk7e2-1" vertex="1">
          <mxGeometry width="120.01000000000002" height="90" as="geometry" />
        </mxCell>
        <mxCell id="pumXQRFQ_T5vQMvHk7e2-3" value="" style="rounded=1;whiteSpace=wrap;html=1;strokeColor=#e6e6e6;strokeWidth=1;shadow=0;glass=0;perimeterSpacing=0;fillStyle=auto;gradientColor=#f7f7f7;container=0;fillColor=#ffffff;" parent="pumXQRFQ_T5vQMvHk7e2-1" vertex="1">
          <mxGeometry width="120.01000000000002" height="120" as="geometry" />
        </mxCell>
        <mxCell id="pumXQRFQ_T5vQMvHk7e2-4" value="&lt;p style=&quot;line-height: 100%; font-size: 10px;&quot;&gt;&lt;b style=&quot;font-size: 10px;&quot;&gt;&lt;font face=&quot;Tahoma&quot; style=&quot;font-size: 10px;&quot;&gt;User&lt;/font&gt;&lt;/b&gt;&lt;/p&gt;" style="html=1;rounded=1;strokeColor=#82e6fa;arcSize=50;fillColor=#65d9f0;fontColor=#FFFFFF;glass=0;textOpacity=95;container=0;spacing=2;fontSize=10;" parent="pumXQRFQ_T5vQMvHk7e2-1" vertex="1">
          <mxGeometry y="90" width="120.01000000000002" height="30" as="geometry" />
        </mxCell>
        <mxCell id="pumXQRFQ_T5vQMvHk7e2-5" value="" style="shape=image;html=1;verticalAlign=top;verticalLabelPosition=bottom;labelBackgroundColor=#ffffff;imageAspect=0;aspect=fixed;image=https://cdn4.iconfinder.com/data/icons/ionicons/512/icon-person-128.png;opacity=40;container=0;" parent="pumXQRFQ_T5vQMvHk7e2-1" vertex="1">
          <mxGeometry x="22.501875000000002" y="10.5" width="75" height="75" as="geometry" />
        </mxCell>
        <mxCell id="pumXQRFQ_T5vQMvHk7e2-6" value="" style="endArrow=classicThin;rounded=1;fontColor=#82BF7B;strokeColor=#5480E8;strokeWidth=1;spacingLeft=0;spacing=0;jumpStyle=none;shadow=0;labelBackgroundColor=none;textOpacity=90;html=1;endFill=1;" parent="1" edge="1">
          <mxGeometry width="50" height="50" relative="1" as="geometry">
            <mxPoint x="200.01" y="-240.45" as="sourcePoint" />
            <mxPoint x="390.01" y="-240.45" as="targetPoint" />
            <Array as="points">
              <mxPoint x="290.01" y="-240.45" />
            </Array>
          </mxGeometry>
        </mxCell>
        <mxCell id="pumXQRFQ_T5vQMvHk7e2-7" value="Nest API / POST export" style="edgeLabel;align=center;verticalAlign=middle;resizable=0;points=[];fontColor=#5480E8;spacing=0;spacingLeft=0;spacingRight=0;labelBackgroundColor=default;labelBorderColor=#5480E8;;labelBorderSize=2;labelPosition=center;verticalLabelPosition=middle;spacingTop=0;fontFamily=Tahoma;fontSize=13;html=1;" parent="pumXQRFQ_T5vQMvHk7e2-6" vertex="1" connectable="0">
          <mxGeometry x="-0.1111" y="3" relative="1" as="geometry">
            <mxPoint x="3" y="3" as="offset" />
          </mxGeometry>
        </mxCell>
        <mxCell id="pumXQRFQ_T5vQMvHk7e2-9" value="V&lt;span style=&quot;background-color: transparent; color: light-dark(rgb(0, 0, 0), rgb(255, 255, 255));&quot;&gt;alidates + enqueues task&lt;/span&gt;" style="text;html=1;align=center;verticalAlign=middle;resizable=0;points=[];autosize=1;strokeColor=none;fillColor=none;" parent="1" vertex="1">
          <mxGeometry x="210" y="-230" width="160" height="30" as="geometry" />
        </mxCell>
        <mxCell id="pumXQRFQ_T5vQMvHk7e2-18" value="" style="endArrow=classicThin;rounded=1;fontColor=#82BF7B;strokeColor=#5480E8;strokeWidth=1;spacingLeft=0;spacing=0;jumpStyle=none;shadow=0;labelBackgroundColor=none;textOpacity=90;html=1;endFill=1;" parent="1" edge="1">
          <mxGeometry width="50" height="50" relative="1" as="geometry">
            <mxPoint x="450" y="-160" as="sourcePoint" />
            <mxPoint x="450" y="-70" as="targetPoint" />
            <Array as="points" />
          </mxGeometry>
        </mxCell>
        <mxCell id="pumXQRFQ_T5vQMvHk7e2-22" value="" style="group" parent="1" vertex="1" connectable="0">
          <mxGeometry x="200" y="-45" width="80" height="80" as="geometry" />
        </mxCell>
        <mxCell id="pumXQRFQ_T5vQMvHk7e2-23" value="" style="rounded=0;whiteSpace=wrap;html=1;fillColor=none;strokeColor=none;container=0;" parent="pumXQRFQ_T5vQMvHk7e2-22" vertex="1">
          <mxGeometry width="80" height="60" as="geometry" />
        </mxCell>
        <mxCell id="pumXQRFQ_T5vQMvHk7e2-24" value="" style="rounded=1;whiteSpace=wrap;html=1;strokeColor=#e6e6e6;strokeWidth=1;shadow=0;glass=0;perimeterSpacing=0;fillStyle=auto;gradientColor=#f7f7f7;container=0;fillColor=#ffffff;" parent="pumXQRFQ_T5vQMvHk7e2-22" vertex="1">
          <mxGeometry width="80" height="80" as="geometry" />
        </mxCell>
        <mxCell id="pumXQRFQ_T5vQMvHk7e2-25" value="&lt;p style=&quot;line-height: 100%; font-size: 10px;&quot;&gt;&lt;b style=&quot;font-size: 10px;&quot;&gt;&lt;font face=&quot;Tahoma&quot; style=&quot;font-size: 10px;&quot;&gt;MongoDb&lt;/font&gt;&lt;/b&gt;&lt;/p&gt;" style="html=1;rounded=1;strokeColor=#bb5cf2;arcSize=50;fillColor=#a23cde;fontColor=#FFFFFF;glass=0;textOpacity=95;container=0;spacing=2;fontSize=10;" parent="pumXQRFQ_T5vQMvHk7e2-22" vertex="1">
          <mxGeometry y="60" width="80" height="20" as="geometry" />
        </mxCell>
        <mxCell id="pumXQRFQ_T5vQMvHk7e2-26" value="" style="points=[];aspect=fixed;html=1;align=center;shadow=0;dashed=0;image;image=img/lib/allied_telesis/computer_and_terminals/Server_Desktop.svg;container=0;" parent="pumXQRFQ_T5vQMvHk7e2-22" vertex="1">
          <mxGeometry x="21.459999999999994" y="6.5" width="37.08" height="47" as="geometry" />
        </mxCell>
        <mxCell id="pumXQRFQ_T5vQMvHk7e2-28" value="" style="endArrow=classic;startArrow=classic;html=1;rounded=0;fontColor=light-dark(#000000,#66B2FF);fillColor=#0050ef;strokeColor=light-dark(#001DBC, #5480e8);" parent="1" edge="1">
          <mxGeometry width="50" height="50" relative="1" as="geometry">
            <mxPoint x="300" y="-5.449999999999989" as="sourcePoint" />
            <mxPoint x="370" y="-5.449999999999989" as="targetPoint" />
            <Array as="points">
              <mxPoint x="330" y="-5.449999999999989" />
            </Array>
          </mxGeometry>
        </mxCell>
        <mxCell id="pumXQRFQ_T5vQMvHk7e2-29" value="" style="endArrow=classicThin;rounded=1;fontColor=#82BF7B;strokeColor=#5480E8;strokeWidth=1;spacingLeft=0;spacing=0;jumpStyle=none;shadow=0;labelBackgroundColor=none;textOpacity=90;html=1;endFill=1;" parent="1" edge="1">
          <mxGeometry width="50" height="50" relative="1" as="geometry">
            <mxPoint x="450" y="80" as="sourcePoint" />
            <mxPoint x="450" y="170" as="targetPoint" />
            <Array as="points" />
          </mxGeometry>
        </mxCell>
        <mxCell id="pumXQRFQ_T5vQMvHk7e2-30" value="JSON to CSV (NodeJS)" style="text;html=1;align=center;verticalAlign=middle;resizable=0;points=[];autosize=1;strokeColor=none;fillColor=none;" parent="1" vertex="1">
          <mxGeometry x="377.75" y="310" width="150" height="30" as="geometry" />
        </mxCell>
        <mxCell id="pumXQRFQ_T5vQMvHk7e2-31" value="" style="group" parent="1" vertex="1" connectable="0">
          <mxGeometry x="120.01" y="199.9999999999999" width="114.5" height="100" as="geometry" />
        </mxCell>
        <mxCell id="pumXQRFQ_T5vQMvHk7e2-32" value="" style="rounded=0;whiteSpace=wrap;html=1;fillColor=none;strokeColor=none;container=0;" parent="pumXQRFQ_T5vQMvHk7e2-31" vertex="1">
          <mxGeometry width="114.5" height="75" as="geometry" />
        </mxCell>
        <mxCell id="pumXQRFQ_T5vQMvHk7e2-33" value="" style="rounded=1;whiteSpace=wrap;html=1;strokeColor=#e6e6e6;strokeWidth=1;shadow=0;glass=0;perimeterSpacing=0;fillStyle=auto;gradientColor=#f7f7f7;container=0;fillColor=#FFFFFF;" parent="pumXQRFQ_T5vQMvHk7e2-31" vertex="1">
          <mxGeometry width="114.5" height="100" as="geometry" />
        </mxCell>
        <mxCell id="pumXQRFQ_T5vQMvHk7e2-34" value="&lt;p style=&quot;line-height: 100%; font-size: 10px;&quot;&gt;&lt;b style=&quot;font-size: 10px;&quot;&gt;&lt;font face=&quot;Tahoma&quot; style=&quot;font-size: 10px;&quot;&gt;S3&lt;/font&gt;&lt;/b&gt;&lt;/p&gt;" style="whiteSpace=wrap;html=1;rounded=1;strokeColor=#ff9442;arcSize=50;fillColor=#FF7814;fontColor=#FFFFFF;glass=0;textOpacity=95;container=0;fontSize=10;" parent="pumXQRFQ_T5vQMvHk7e2-31" vertex="1">
          <mxGeometry y="75" width="114.5" height="25" as="geometry" />
        </mxCell>
        <mxCell id="pumXQRFQ_T5vQMvHk7e2-35" value="" style="outlineConnect=0;dashed=0;verticalLabelPosition=bottom;verticalAlign=top;align=center;html=1;shape=mxgraph.aws3.s3;fillColor=#E05243;gradientColor=none;shadow=0;container=0;" parent="pumXQRFQ_T5vQMvHk7e2-31" vertex="1">
          <mxGeometry x="34.736437499999994" y="13.599999999999994" width="45.012812499999995" height="47.787499999999994" as="geometry" />
        </mxCell>
        <mxCell id="pumXQRFQ_T5vQMvHk7e2-36" value="" style="endArrow=classicThin;rounded=1;fontColor=#82BF7B;strokeColor=#5480E8;strokeWidth=1;spacingLeft=0;spacing=0;jumpStyle=none;shadow=0;labelBackgroundColor=none;textOpacity=90;html=1;endFill=1;" parent="1" edge="1">
          <mxGeometry width="50" height="50" relative="1" as="geometry">
            <mxPoint x="360" y="240" as="sourcePoint" />
            <mxPoint x="260" y="240" as="targetPoint" />
            <Array as="points" />
          </mxGeometry>
        </mxCell>
        <mxCell id="pumXQRFQ_T5vQMvHk7e2-37" value="" style="group" parent="1" vertex="1" connectable="0">
          <mxGeometry x="115" y="420" width="119.51" height="110" as="geometry" />
        </mxCell>
        <mxCell id="pumXQRFQ_T5vQMvHk7e2-38" value="" style="rounded=0;whiteSpace=wrap;html=1;fillColor=none;strokeColor=none;container=0;" parent="pumXQRFQ_T5vQMvHk7e2-37" vertex="1">
          <mxGeometry width="119.51000000000002" height="82.5" as="geometry" />
        </mxCell>
        <mxCell id="pumXQRFQ_T5vQMvHk7e2-39" value="" style="rounded=1;whiteSpace=wrap;html=1;strokeColor=#e6e6e6;strokeWidth=1;shadow=0;glass=0;perimeterSpacing=0;fillStyle=auto;gradientColor=#f7f7f7;container=0;fillColor=#ffffff;" parent="pumXQRFQ_T5vQMvHk7e2-37" vertex="1">
          <mxGeometry width="119.51000000000002" height="110" as="geometry" />
        </mxCell>
        <mxCell id="pumXQRFQ_T5vQMvHk7e2-40" value="&lt;p style=&quot;line-height: 100%; font-size: 10px;&quot;&gt;&lt;font face=&quot;Tahoma&quot;&gt;&lt;b&gt;Email Service&lt;/b&gt;&lt;/font&gt;&lt;/p&gt;" style="html=1;rounded=1;strokeColor=#999999;arcSize=50;fillColor=#808080;fontColor=#FFFFFF;glass=0;textOpacity=95;container=0;spacing=2;fontSize=10;" parent="pumXQRFQ_T5vQMvHk7e2-37" vertex="1">
          <mxGeometry y="82.5" width="119.51000000000002" height="27.5" as="geometry" />
        </mxCell>
        <mxCell id="pumXQRFQ_T5vQMvHk7e2-41" value="&lt;font style=&quot;font-size: 7px;&quot; color=&quot;#666666&quot; face=&quot;Courier New&quot;&gt;i = 0;&lt;br&gt;i++;&lt;/font&gt;" style="sketch=0;outlineConnect=0;gradientColor=none;html=1;whiteSpace=wrap;fontSize=12;fontStyle=0;shape=mxgraph.aws4.group;grIcon=mxgraph.aws4.group_aws_step_functions_workflow;strokeColor=#333333;fillColor=none;verticalAlign=top;align=left;spacingLeft=30;fontColor=#E8E8E8;dashed=0;container=0;" parent="pumXQRFQ_T5vQMvHk7e2-37" vertex="1">
          <mxGeometry x="14.938750000000002" y="13.75" width="89.63250000000001" height="55" as="geometry" />
        </mxCell>
        <mxCell id="pumXQRFQ_T5vQMvHk7e2-42" value="Nodemailer (NodeJS)" style="text;html=1;align=center;verticalAlign=middle;resizable=0;points=[];autosize=1;strokeColor=none;fillColor=none;" parent="1" vertex="1">
          <mxGeometry x="104.76" y="540" width="140" height="30" as="geometry" />
        </mxCell>
        <mxCell id="pumXQRFQ_T5vQMvHk7e2-43" value="" style="endArrow=classicThin;rounded=1;fontColor=#82BF7B;strokeColor=#5480E8;strokeWidth=1;spacingLeft=0;spacing=0;jumpStyle=none;shadow=0;labelBackgroundColor=none;textOpacity=90;html=1;endFill=1;" parent="1" edge="1">
          <mxGeometry width="50" height="50" relative="1" as="geometry">
            <mxPoint x="175.01" y="320" as="sourcePoint" />
            <mxPoint x="175.01" y="410" as="targetPoint" />
            <Array as="points" />
          </mxGeometry>
        </mxCell>
        <mxCell id="pumXQRFQ_T5vQMvHk7e2-44" value="" style="group" parent="1" vertex="1" connectable="0">
          <mxGeometry x="420" y="420" width="120.01" height="120" as="geometry" />
        </mxCell>
        <mxCell id="pumXQRFQ_T5vQMvHk7e2-45" value="" style="rounded=0;whiteSpace=wrap;html=1;fillColor=none;strokeColor=none;container=0;" parent="pumXQRFQ_T5vQMvHk7e2-44" vertex="1">
          <mxGeometry width="120.01000000000002" height="90" as="geometry" />
        </mxCell>
        <mxCell id="pumXQRFQ_T5vQMvHk7e2-46" value="" style="rounded=1;whiteSpace=wrap;html=1;strokeColor=#e6e6e6;strokeWidth=1;shadow=0;glass=0;perimeterSpacing=0;fillStyle=auto;gradientColor=#f7f7f7;container=0;fillColor=#ffffff;" parent="pumXQRFQ_T5vQMvHk7e2-44" vertex="1">
          <mxGeometry width="120.01000000000002" height="120" as="geometry" />
        </mxCell>
        <mxCell id="pumXQRFQ_T5vQMvHk7e2-47" value="&lt;p style=&quot;line-height: 100%; font-size: 10px;&quot;&gt;&lt;b style=&quot;font-size: 10px;&quot;&gt;&lt;font face=&quot;Tahoma&quot; style=&quot;font-size: 10px;&quot;&gt;User&lt;/font&gt;&lt;/b&gt;&lt;/p&gt;" style="html=1;rounded=1;strokeColor=#82e6fa;arcSize=50;fillColor=#65d9f0;fontColor=#FFFFFF;glass=0;textOpacity=95;container=0;spacing=2;fontSize=10;" parent="pumXQRFQ_T5vQMvHk7e2-44" vertex="1">
          <mxGeometry y="90" width="120.01000000000002" height="30" as="geometry" />
        </mxCell>
        <mxCell id="pumXQRFQ_T5vQMvHk7e2-48" value="" style="shape=image;html=1;verticalAlign=top;verticalLabelPosition=bottom;labelBackgroundColor=#ffffff;imageAspect=0;aspect=fixed;image=https://cdn4.iconfinder.com/data/icons/ionicons/512/icon-person-128.png;opacity=40;container=0;" parent="pumXQRFQ_T5vQMvHk7e2-44" vertex="1">
          <mxGeometry x="22.501875000000002" y="10.5" width="75" height="75" as="geometry" />
        </mxCell>
        <mxCell id="pumXQRFQ_T5vQMvHk7e2-49" value="Recieves Email with the download link" style="text;html=1;align=center;verticalAlign=middle;resizable=0;points=[];autosize=1;strokeColor=none;fillColor=none;" parent="1" vertex="1">
          <mxGeometry x="370" y="560" width="230" height="30" as="geometry" />
        </mxCell>
        <mxCell id="pumXQRFQ_T5vQMvHk7e2-50" value="" style="endArrow=classicThin;rounded=1;fontColor=#82BF7B;strokeColor=#5480E8;strokeWidth=1;spacingLeft=0;spacing=0;jumpStyle=none;shadow=0;labelBackgroundColor=none;textOpacity=90;html=1;endFill=1;" parent="1" edge="1">
          <mxGeometry width="50" height="50" relative="1" as="geometry">
            <mxPoint x="260" y="470" as="sourcePoint" />
            <mxPoint x="380" y="470" as="targetPoint" />
            <Array as="points" />
          </mxGeometry>
        </mxCell>
        <mxCell id="pumXQRFQ_T5vQMvHk7e2-51" value="" style="group" parent="1" vertex="1" connectable="0">
          <mxGeometry x="390" y="-60" width="125.51" height="110" as="geometry" />
        </mxCell>
        <mxCell id="pumXQRFQ_T5vQMvHk7e2-52" value="" style="rounded=0;whiteSpace=wrap;html=1;fillColor=none;strokeColor=none;container=0;" parent="pumXQRFQ_T5vQMvHk7e2-51" vertex="1">
          <mxGeometry width="125.51000000000002" height="82.5" as="geometry" />
        </mxCell>
        <mxCell id="pumXQRFQ_T5vQMvHk7e2-53" value="" style="rounded=1;whiteSpace=wrap;html=1;strokeColor=#e6e6e6;strokeWidth=1;shadow=0;glass=0;perimeterSpacing=0;fillStyle=auto;gradientColor=#f7f7f7;container=0;fillColor=#ffffff;" parent="pumXQRFQ_T5vQMvHk7e2-51" vertex="1">
          <mxGeometry width="125.51000000000002" height="109.99999999999999" as="geometry" />
        </mxCell>
        <mxCell id="pumXQRFQ_T5vQMvHk7e2-54" value="&lt;p style=&quot;line-height: 100%; font-size: 10px;&quot;&gt;&lt;b&gt;&lt;font face=&quot;Tahoma&quot;&gt;Export Worker Service&lt;/font&gt;&lt;/b&gt;&lt;/p&gt;" style="html=1;rounded=1;strokeColor=#999999;arcSize=50;fillColor=#808080;fontColor=#FFFFFF;glass=0;textOpacity=95;container=0;spacing=2;fontSize=10;" parent="pumXQRFQ_T5vQMvHk7e2-51" vertex="1">
          <mxGeometry y="82.5" width="120.57729257641923" height="27.499999999999996" as="geometry" />
        </mxCell>
        <mxCell id="pumXQRFQ_T5vQMvHk7e2-55" value="&lt;font style=&quot;font-size: 7px;&quot; color=&quot;#666666&quot; face=&quot;Courier New&quot;&gt;i = 0;&lt;br&gt;i++;&lt;/font&gt;" style="sketch=0;outlineConnect=0;gradientColor=none;html=1;whiteSpace=wrap;fontSize=12;fontStyle=0;shape=mxgraph.aws4.group;grIcon=mxgraph.aws4.group_aws_step_functions_workflow;strokeColor=#333333;fillColor=none;verticalAlign=top;align=left;spacingLeft=30;fontColor=#E8E8E8;dashed=0;container=0;" parent="pumXQRFQ_T5vQMvHk7e2-51" vertex="1">
          <mxGeometry x="15.688750000000002" y="13.749999999999998" width="94.13250000000002" height="54.99999999999999" as="geometry" />
        </mxCell>
        <mxCell id="pumXQRFQ_T5vQMvHk7e2-57" value="Download from S3" style="edgeLabel;align=center;verticalAlign=middle;resizable=0;points=[];fontColor=#5480E8;spacing=0;spacingLeft=0;spacingRight=0;labelBackgroundColor=default;labelBorderColor=#5480E8;;labelBorderSize=2;labelPosition=center;verticalLabelPosition=middle;spacingTop=0;fontFamily=Tahoma;fontSize=13;html=1;" parent="1" vertex="1" connectable="0">
          <mxGeometry x="325" y="490" as="geometry" />
        </mxCell>
        <mxCell id="pumXQRFQ_T5vQMvHk7e2-58" value="" style="endArrow=classic;html=1;rounded=0;strokeColor=light-dark(default, #5480e8);" parent="1" edge="1">
          <mxGeometry width="50" height="50" relative="1" as="geometry">
            <mxPoint x="40" y="703.01" as="sourcePoint" />
            <mxPoint x="40" y="1030" as="targetPoint" />
            <Array as="points">
              <mxPoint x="-60" y="703" />
              <mxPoint x="-60" y="1030" />
            </Array>
          </mxGeometry>
        </mxCell>
        <mxCell id="pumXQRFQ_T5vQMvHk7e2-59" value="" style="endArrow=classic;html=1;rounded=0;strokeColor=light-dark(default, #5480e8);" parent="1" edge="1">
          <mxGeometry width="50" height="50" relative="1" as="geometry">
            <mxPoint x="820" y="850.01" as="sourcePoint" />
            <mxPoint x="820" y="1177" as="targetPoint" />
            <Array as="points">
              <mxPoint x="720" y="850" />
              <mxPoint x="720" y="1177" />
            </Array>
          </mxGeometry>
        </mxCell>
        <mxCell id="pumXQRFQ_T5vQMvHk7e2-60" value="" style="endArrow=classic;html=1;rounded=0;strokeColor=light-dark(default, #5480e8);" parent="1" edge="1">
          <mxGeometry width="50" height="50" relative="1" as="geometry">
            <mxPoint x="55" y="703.01" as="sourcePoint" />
            <mxPoint x="55" y="1030" as="targetPoint" />
            <Array as="points">
              <mxPoint x="-45" y="703" />
              <mxPoint x="-45" y="1030" />
            </Array>
          </mxGeometry>
        </mxCell>
        <mxCell id="pumXQRFQ_T5vQMvHk7e2-61" value="" style="endArrow=classic;html=1;rounded=0;strokeColor=light-dark(#000000,#5480E8);" parent="1" edge="1">
          <mxGeometry width="50" height="50" relative="1" as="geometry">
            <mxPoint x="99.76" y="243.01" as="sourcePoint" />
            <mxPoint x="320" y="510" as="targetPoint" />
            <Array as="points">
              <mxPoint x="-0.2400000000000002" y="243" />
              <mxPoint x="-0.2400000000000002" y="600" />
              <mxPoint x="320" y="600" />
            </Array>
          </mxGeometry>
        </mxCell>
      </root>
    </mxGraphModel>
  </diagram>
</mxfile>
